<?xml version="1.0" standalone="no"?>
<!DOCTYPE svg PUBLIC "-//W3C//DTD SVG 20010904//EN"
 "http://www.w3.org/TR/2001/REC-SVG-20010904/DTD/svg10.dtd">
<svg version="1.0" xmlns="http://www.w3.org/2000/svg"
 width="632.000000pt" height="632.000000pt" viewBox="0 0 632.000000 632.000000"
 preserveAspectRatio="xMidYMid meet">
<metadata>
Created by potrace 1.14, written by Peter Selinger 2001-2017
</metadata>
<g transform="translate(0.000000,632.000000) scale(0.100000,-0.100000)"
fill="#000000" stroke="none">
<path d="M1355 6310 c-117 -12 -291 -53 -397 -95 -478 -189 -811 -584 -930
-1104 l-22 -96 -4 -1740 c-2 -1213 0 -1783 8 -1882 28 -363 161 -667 404 -920
225 -236 471 -373 796 -445 l105 -23 1835 0 c1750 0 1840 1 1935 19 470 88
864 385 1080 815 57 115 106 263 131 396 18 95 19 185 19 1935 l0 1835 -22
101 c-67 299 -190 535 -388 743 -222 232 -466 369 -790 443 l-100 22 -1790 2
c-984 1 -1826 -2 -1870 -6z m197 -2484 c184 -40 308 -154 342 -319 7 -34 11
-65 9 -69 -2 -5 -91 -8 -197 -8 l-193 0 -7 31 c-3 17 -19 44 -35 60 -24 23
-38 29 -74 29 -25 0 -53 -3 -62 -6 -26 -11 -48 -62 -40 -101 9 -48 59 -81 212
-138 251 -93 359 -170 397 -281 32 -94 14 -239 -39 -325 -56 -88 -175 -165
-292 -189 -73 -16 -291 -7 -354 13 -117 38 -204 100 -257 185 -33 51 -62 138
-62 184 l0 28 194 0 194 0 7 -37 c4 -21 19 -48 37 -65 25 -23 39 -28 80 -28
53 0 102 20 112 45 11 30 6 80 -10 103 -20 30 -65 51 -209 102 -226 80 -304
128 -360 224 -35 60 -51 160 -38 238 30 180 147 286 368 332 47 9 215 5 277
-8z m1528 -151 l0 -145 -175 0 -175 0 0 -510 0 -510 -185 0 -185 0 0 510 0
510 -170 0 -170 0 0 145 0 145 530 0 530 0 0 -145z m1020 0 l0 -145 -260 0
-260 0 0 -115 0 -115 195 0 195 0 0 -140 0 -140 -195 0 -195 0 0 -255 0 -255
-185 0 -185 0 0 655 0 655 445 0 445 0 0 -145z m520 -273 c0 -413 0 -418 23
-462 39 -78 123 -112 221 -90 66 15 91 34 121 93 l25 51 0 413 0 413 185 0
185 0 0 -433 c0 -356 -3 -443 -15 -492 -49 -189 -189 -328 -385 -381 -88 -23
-262 -23 -350 0 -141 38 -256 130 -320 255 -56 112 -60 151 -60 624 l0 427
185 0 185 0 0 -418z"/>
</g>
</svg>
